<?xml version="1.0" encoding="utf-8"?>

<!DOCTYPE svg PUBLIC "-//W3C//DTD SVG 1.1//EN" "http://www.w3.org/Graphics/SVG/1.1/DTD/svg11.dtd">
<!-- Uploaded to: SVG Repo, www.svgrepo.com, Generator: SVG Repo Mixer Tools -->
<svg height="800px" width="800px" version="1.1" id="_x32_" xmlns="http://www.w3.org/2000/svg" xmlns:xlink="http://www.w3.org/1999/xlink" 
	 viewBox="0 0 512 512"  xml:space="preserve">
<style type="text/css">
	.st0{fill:#000000;}
</style>
<g>
	<path class="st0" d="M255.984,404.344c60.867,0,110.188-49.328,110.203-110.188c-0.015-60.851-49.336-110.187-110.203-110.187
		c-60.851,0-110.171,49.336-110.171,110.187C145.813,355.016,195.133,404.344,255.984,404.344z M324.172,362.336
		c-10.047,10.031-22.282,17.844-35.922,22.687c6.531-7.906,11.984-18.031,16.25-29.75h26.054
		C328.539,357.726,326.422,360.086,324.172,362.336z M337.946,344.946H307.82c3.875-13.734,6.203-29.195,6.618-45.625h37.828
		C351.39,316.023,346.258,331.57,337.946,344.946z M337.946,243.375c8.312,13.367,13.445,28.914,14.32,45.617h-37.867
		c-0.422-16.406-2.672-31.89-6.547-45.617H337.946z M324.172,225.985c2.25,2.242,4.367,4.602,6.382,7.054h-26.07
		c-1.835-5.062-3.89-9.875-6.156-14.297c-3.008-5.782-6.351-10.969-10.046-15.446C301.906,208.141,314.125,215.954,324.172,225.985z
		 M261.156,197.898c1.61,0.07,3.219,0.203,4.813,0.359c2.523,1.141,5.039,2.688,7.531,4.719
		c7.586,6.179,14.617,16.641,19.969,30.062h-32.313V197.898z M261.156,243.375h35.922c4.07,13.414,6.586,28.961,7.031,45.617
		h-42.954V243.375z M261.156,299.321h42.898c-0.422,16.656-2.953,32.202-7.038,45.625h-35.86V299.321z M261.156,355.274h32.266
		c-1.336,3.351-2.742,6.594-4.273,9.562c-4.578,8.875-9.985,15.875-15.649,20.516c-2.492,2.015-5.008,3.562-7.531,4.71
		c-1.594,0.164-3.203,0.29-4.813,0.375V355.274z M187.813,362.336c-2.234-2.25-4.367-4.61-6.391-7.062H207.5
		c1.851,5.07,3.89,9.875,6.172,14.297c2.984,5.782,6.351,10.969,10.046,15.453C210.078,380.18,197.859,372.359,187.813,362.336z
		 M250.828,390.438c-1.61-0.086-3.218-0.211-4.812-0.375c-2.524-1.133-5.039-2.695-7.516-4.71
		c-7.602-6.188-14.633-16.657-19.984-30.078h32.312V390.438z M250.828,344.946h-35.906c-4.094-13.422-6.602-28.969-7.031-45.625
		h42.938V344.946z M250.828,288.992h-42.906c0.43-16.656,2.962-32.202,7.047-45.617h35.859V288.992z M238.5,202.977
		c2.477-2.031,4.992-3.594,7.516-4.719c1.594-0.171,3.202-0.289,4.812-0.359v35.141h-32.266c1.352-3.351,2.742-6.594,4.289-9.562
		C227.43,214.61,232.813,207.618,238.5,202.977z M187.813,225.985c10.046-10.039,22.281-17.844,35.922-22.688
		c-6.531,7.898-11.984,18.024-16.25,29.742h-26.062C183.446,230.586,185.578,228.226,187.813,225.985z M174.054,243.375h30.11
		c-3.875,13.734-6.187,29.195-6.602,45.617h-37.844C160.61,272.29,165.726,256.742,174.054,243.375z M159.718,299.321h37.883
		c0.406,16.406,2.672,31.89,6.531,45.625h-30.078C165.726,331.57,160.61,316.023,159.718,299.321z"/>
	<path class="st0" d="M464,0H48C21.484,0,0,21.492,0,48v416c0,26.508,21.484,48,48,48h416c26.5,0,48-21.492,48-48V48
		C512,21.492,490.5,0,464,0z M444.656,35c10.5,0,19,8.508,19,19s-8.5,19-19,19c-10.484,0-19-8.508-19-19S434.172,35,444.656,35z
		 M374.156,35c10.5,0,19,8.508,19,19s-8.5,19-19,19c-10.484,0-19-8.508-19-19S363.672,35,374.156,35z M303.656,35
		c10.5,0,19,8.508,19,19s-8.5,19-19,19c-10.484,0-19-8.508-19-19S293.172,35,303.656,35z M472,464c0,4.406-3.594,8-8,8H48
		c-4.422,0-8-3.594-8-8V104h432V464z"/>
</g>
</svg>