<?xml version="1.0" encoding="UTF-8"?>
<svg id="Layer_1" data-name="Layer 1" xmlns="http://www.w3.org/2000/svg" version="1.1" viewBox="0 0 1016.5 430">
  <defs>
    <style>
      .cls-1 {
        fill: #000;
        stroke-width: 0px;
      }
    </style>
  </defs>
  <path class="cls-1" d="M511.9,426.8c3-4.9,4.1-9.4,4.7-18.4.4-6.7.1-9.9-2.1-18.5-2.9-11.2-4.6-15.4-6.1-15.4s-7.6,21.1-8.2,28.6c-.9,10.8,4,26.9,8.2,26.9s2.4-1.5,3.5-3.2Z"/>
  <path class="cls-1" d="M533.9,393.5c1.7-2,.8-7.1-2.4-14.1l-2.5-5.5,2.2.7c6.1,1.9,12.6,5.4,14.5,7.9l2.2,2.8v-2.4c0-3.4-2.1-6.1-8.9-11.4-14.5-11.1-26.9-34.9-29.6-56.8-.8-6.2-2.5-5.1-2.5,1.7,0,17.2-13.4,42.7-29.1,55.2-7.1,5.6-8.9,7.9-8.9,11.1s.2,1.5,1.8-.4c2.2-2.9,18.2-10.1,17-7.7-3.1,6.3-4.2,9.7-4.6,14.1s-.2,5.4,1.4,6c1.3.5,2.5-.2,4.2-2.3,2.2-2.8,12.2-23.7,15.8-33.1,3-7.8,5.1-7.7,8.3.2,4.5,11.2,14.1,31.1,16,33.3,2.3,2.6,3.4,2.7,5.1.7Z"/>
  <path class="cls-1" d="M561,375.4c-6.7-3.5-20.2-14.6-19-15.8s2.3.1,4.4.9c8,2.8,21.6,1.4,25.6-2.6s2-4.3-2-4.9l-3.2-.5,2.8-1.2c3.5-1.6,6.3-6.1,6.3-10.2s-.3-3.6-6-1.6c-9.2,3.2-22.9,1.2-30.8-4.5-4.3-3.1-5.9-6-2.3-4,2.2,1.1,7.1,1.3,9.6.4,1.9-.8,4.5-5.5,4.5-8.4s-.6-2-5.3-2c-10.9-.1-19.3-6.8-22.1-17.7-.7-2.5-1.7-4.8-2.3-5-2.4-.8-4.6,4.8-5.1,12.6-.4,6.6,0,8.9,2.5,16.2,4.8,14,18.3,34.7,27.5,42.2,5,4.1,13.7,8.4,18.9,9.2,2.7.5,1.8-.2-4-3.1Z"/>
  <path class="cls-1" d="M458.2,376.6c10.6-4.4,16.8-9.8,25.9-22.6,10.9-15.4,16.9-30,16.9-41.5.1-7.4-.9-11.3-3.4-13.3-1.9-1.6-3.2,0-4.1,5-1.7,9.2-11.5,16.8-21.9,16.8h-6s.7,3.3.7,3.3c.3,1.7,1.8,4.3,3.3,5.5,2.3,2.1,3.2,2.3,8.2,1.7l5.6-.7-2.6,2.1c-1.5,1.1-5.1,3.3-8,4.8-6.9,3.5-20.2,4.4-26.3,1.9-5.3-2.2-5.6-2.1-5.6,2.1s3.9,9.9,7.2,10.6c1.4.3.8.5-1.5.6-3.4.1-3.8.4-3.5,2.3.2,1.3,1.8,3.1,3.8,4.2,4.7,2.8,19.8,3,24.7.3,4.3-2.3,4.2-.7-.3,4.2-4.3,4.8-12.3,10.3-19,13-3.7,1.5-4.3,2-2.4,2s5.1-1,8.3-2.3Z"/>
  <path class="cls-1" d="M640.2,357.4c8.7-2.7,16.6-13.3,18.2-24.5.4-2.7.3-5.5-.4-6.7-1-1.9-.9-1.9,2.7-.6,7.8,2.8,18.4.9,25.9-4.6,4.2-3.1,8.4-10.1,9.9-16.4l.7-3-3.4,3.2c-3,2.8-8.2,5.2-11.4,5.2s-9.1-2.8-15.7-9.2c-4-3.9-6.8-7.3-6.1-7.5,8.7-3.1,13.5-19.3,8.9-29.8l-1.7-4-1.3,3c-3.4,7.9-11.3,13.6-18.8,13.4-4-.1-4.1-.1-1.6-1,3.6-1.4,4.2-3.5,1.7-6-4.7-4.7-17,.3-24.1,9.6-2.1,2.8-4.4,6.2-5.1,7.8-1.5,3.5-3.3,3.4-13.2-.6-10.6-4.3-19-10.2-30.2-21-20.5-19.8-37.3-46.3-52.3-82.1-4.5-11-6.9-14.1-9.1-11.9s17.4,41.1,31.8,63.3c20.2,31.1,42.9,49.8,67.7,55.5,7.7,1.8,10.4,1.1,18.2-4.9,5.5-4.2,8.5-4.5,13-1.1,3.8,2.9,4.9,5.6,3.4,8.5-1,1.8-2,2-13.8,2h-12.7s7.5,4.8,7.5,4.8c13.6,8.7,17,15.1,17,31.6s-1.6,14.7-2.2,4.7c-.4-8.1-2.4-11.6-8-14.4s-3.7-2.3-4.8-8c-1.8-9.3-7.5-17.7-12-17.7s-5,8.1-5,12.6,5.6,16.8,10.6,22q3.4,3.7,9.6,1.7c3.9-1.2,3.1,13.5-1.2,23.5l-1.9,4.2h2.2c1.2-.1,4.4-.8,7-1.6Z"/>
  <path class="cls-1" d="M383.9,354.8c-2.6-6-4.4-16-3.6-20.4.8-3.8,1.8-4,6.9-1.9,4.1,1.7,14.6-14.2,15.5-23.5.3-3.7-.1-6-1.8-9.4-1.2-2.5-2.6-4.6-3.1-4.6-4.1,0-10.3,8.6-11.4,16-1.1,7.4-1.5,8.1-5.9,10-5.4,2.3-7.6,6.5-7.7,15.2-.1,9.7-1.7,4.1-1.8-6.3-.2-15.6,3-21.6,16.2-30.9l7.1-5h-11.6c-9.3,0-12-.3-13.2-1.6-2.5-2.4-1.9-4.9,1.9-8.3,4.8-4.2,7.9-4,14.5.9,5.5,4.1,11.8,6.6,13.2,5.2s-6-11.8-10.8-16.4c-6.7-6.4-15-8.6-19.4-5-2.5,2-2,4.4,1.3,6,2,.9,1.7,1.1-1.8,1.1-6.5.1-14.4-5.5-17.6-12.4l-1.8-4-1.7,4c-2.8,6.3-2.4,15,1.1,21.3,1.6,2.9,4.3,6.1,6.1,7.2l3.2,2-6.7,6.5c-6.4,6.1-12,9.5-15.8,9.5s-9-2.1-12.1-4.9c-3.7-3.5-3.9-3-1.2,4.1,2.3,6.2,8.6,12.9,14.3,15.3,5.6,2.3,14.5,2.9,19.2,1.3l4.1-1.4-.4,6.2c-.5,7.8,2.6,15.2,8.8,21.2,4.1,4.1,7.1,5.5,14.2,6.7l3.7.6-1.9-4.3Z"/>
  <path class="cls-1" d="M561.5,309.5c-2.1-8-2.6-12.5-2.6-23.1,0-13.5-1.3-19.3-5.9-26.6-3.5-5.5-4.9-6.1-4.3-1.8.2,1.6-.1,7.2-.7,12.3-1.3,11.4-.3,18.9,3.9,27.2,3.2,6.4,10.5,15.5,9.6,12Z"/>
  <path class="cls-1" d="M458.8,307.3c4.6-5.5,8.8-14.1,10.1-20.7,1-4.7,1-8.3,0-16.7-.7-6-1-11.8-.7-12.9,1.2-4.5-1.9-1.1-5.6,6.1-3.7,7.4-3.7,7.5-4.2,21.9-.2,8-1,17.1-1.8,20.3-.8,3.1-1.3,5.7-1.1,5.7s1.6-1.6,3.3-3.7Z"/>
  <path class="cls-1" d="M782.9,294.1c7.9-2.4,13.7-8,17.9-17.1,2.1-4.6,2.5-7,2.6-14.5,0-8.2-.3-9.6-3.3-15.7-7-14.3-25.1-25.8-40.6-25.8-4,0-3.9,0,4.4-4.3,24.5-12.3,48.3-32.3,58.2-48.9,5.9-9.9,7.7-16.9,8.8-34.2.6-8.3,1.5-18.2,2.1-22.1,1-7.4,4.3-15.5,6.2-15.6,2.7-.1-3.1-1.8-6.6-1.8-4.8-.1-9.2,2.1-11,5.5l-1.4,2.7-1.7-5.4c-4.6-14.2-12.5-24.9-34.7-47.1-9.3-9.2-17.3-17.7-17.9-18.8-1-1.9-.8-2,3.8-2s5.3-.5,7-2.3c2.2-2.3,2.8-6,1.6-9.2-1.6-4.1-11.8-5.9-17.2-3.1-8.7,4.6-14.3,17-11.2,25.1l1,2.6-2.7-1.9c-1.6-1.1-5.7-3.4-9.2-5.1-3.5-1.8-7.4-4.3-8.8-5.7-3-3-3.3-3-3.3.2s-.4,2.4-1.8,2c-4.7-1.4-20.2-3.6-25.9-3.6-9,0-20.5,2.6-29.1,6.6-5.5,2.5-9.2,5.2-14.6,10.6-10.4,10.5-15.6,22.2-15.6,35.4,0,10.6,7.1,20.9,17.8,25.6,6.9,3.1,16.2,2.3,22.4-2,13.2-9.1,10.7-27.2-3.8-27.2s-7.4,2.3-7.4,6.3-1.2,3.3-7.2,1.7c-2.1-.6-4.2-1.9-4.8-3-4.6-8.5,8-28,22.3-34.5,14.3-6.6,38-6,60.2,1.5,38.5,13,62.8,35.4,72.1,66.7,3.4,11.5,3.9,28.9,1,40-3,12.1-11.1,23.4-22.5,31.5-4.8,3.4-4.5,2.7,2-5,5.2-6,10.6-16.8,13-25.9,2.5-9.3,3-29.4,1-38.8-4.1-19-17.1-33.5-39.2-43.9-15.9-7.5-28.3-9-43.1-5-2.9.7-6.8,1.4-8.6,1.4-3.7,0-4,1.2-1.3,5.6,2,3.4,10.9,8.4,14.8,8.4s2.6,1.7-1.5,2.4c-5,.8-11.4,5.5-13.5,9.9-4.1,8.6-.7,19.1,8.8,26.9l3.3,2.8-.5-4c-.4-2.7,0-4.7,1-6.4,3.7-5.6,20.8-7.5,32.4-3.6,11.5,4,22.9,15.8,28.4,29.7,1.9,4.8,2.3,7.8,2.4,16.8,0,10.6-.1,11.3-3.4,18-8,16.3-31.9,33.2-61.5,43.4-12.8,4.4-40.4,11.6-41.3,10.8-.3-.3,1.5-1.1,3.8-1.7,17.3-4.3,37.5-13.1,51.4-22.2,10.2-6.7,24.4-20.3,27.9-26.9,5-9.1,2.4-20.4-5.7-24.5-3.6-1.9-11-2.1-15.9-.5-3.4,1.1-3.5,1.3-4.6,8.9-1.9,12.6-7.5,22.6-19.1,34.3-15.4,15.5-27.9,22.6-49.1,27.7-20.7,5.1-24.1,5.1-8.5.2,15.1-4.8,31.3-15,38.7-24.4,10.1-12.8,14-28.7,10.3-41.4-3-9.9-9.8-14.9-21.8-15.9-6.6-.6-7-.5-6.3,1.3,9.9,25.4-1.5,57.3-26.2,73.8-9.1,6-13.7,7-28.3,6.3-33.5-1.8-64.9-15-83.5-35-5-5.4-7.8-7.8-8.9-7.4-.8.4-1.5,1.2-1.5,1.9,0,2.2,8.9,11.7,18.5,19.6,27.5,22.9,56.9,35.7,96.5,41.9,16.3,2.5,43.7,2.3,63-.6,17.2-2.5,30.8-2.8,35-.6,1.5.8,3.8,2.7,5,4.2l2.3,2.8-.7-4.3c-.8-5.3-3.6-11-7.7-15.6l-3-3.5,2.6-.7c1.4-.4,6.2-.4,10.6-.2,15.2.9,26.1,9.1,28.8,21.8,1.6,7.5-.1,14.2-5.1,19.6-5.1,5.5-10.5,7.5-14.2,5-3.4-2.2-4.3-2-6.2.9-3.8,5.8,1.9,15.3,10.9,18,5.5,1.6,6.9,1.7,10.7.6Z"/>
  <path class="cls-1" d="M243.5,294.1c10.5-2.6,16.6-12.9,11.5-19.2q-1.9-2.3-5.3-.5c-3,1.6-4,1.7-7.1.7-3.8-1.3-10.2-7.6-11.7-11.7-1.8-4.7-1.1-13.5,1.4-18.9,5-10.5,13.7-15.6,28.1-16.2,11.8-.5,13.2.4,8.4,5.4-4.5,4.7-5.7,7-6.8,12.9l-.9,4.6,2.7-2.5c1.4-1.4,3.7-3,5.1-3.8,3.7-1.9,16.3-1.5,34,1.2,22.3,3.3,47.8,3.2,68-.4,34.7-6.2,60.3-16.8,84.2-34.7,15.5-11.6,26.7-23.3,25.4-26.5-1-2.8-3.3-1.5-8,4.4-11.8,15.1-39.4,29.3-67.1,34.7-5.5,1-14.3,1.7-22.5,1.8-13.2.1-13.6,0-18.9-2.9-13-7.2-26.5-22.1-31.1-34.3-5.2-13.5-5.8-30.3-1.5-40.4l1.5-3.8h-4.8c-16.5,0-25.3,9.1-25.3,25.9,0,20.5,12.3,37.7,34.6,48.7,8.5,4.1,25.3,9.4,30.2,9.4,1.4,0,2.3.6,2.3,1.5,0,1.7-.5,1.7-15.5-1.2-25.1-4.8-45.1-15.6-61.7-33.2-10.3-10.9-16.7-24.6-16.8-35.8,0-2.6-.5-3.3-3.1-4.2-5.6-1.9-14.2-1.4-17.9,1.2-7.1,4.8-9.1,14.7-4.6,23.5,3.4,6.7,15.3,18.2,26.6,25.8,14.9,9.9,28.7,15.9,56,24.2l3.5,1.1-4-.6c-15.2-2-45.6-11.8-61-19.5-27.5-13.8-42.8-30.8-44.2-49-1.4-19.1,10.6-40.4,27.2-48.3,10.9-5.2,29.2-4.5,35,1.3s2.6,3.4,2.3,6.9l-.3,4.2,4.8-4.7c10.1-9.9,11.5-20.4,3.9-28.6-3.1-3.3-9.6-6.5-13.2-6.6-3.2,0-1.5-1.4,3.5-2.8,5.7-1.7,10.2-4.7,12.5-8.4,1.1-1.8,2-3.6,2-3.9s-2.1-.9-4.8-1.2c-2.6-.3-8.5-1.3-13.2-2.2-13.9-2.6-25.7-.3-42.3,8.2-10.4,5.4-23.1,16.7-27.6,24.6-1.6,2.9-4,8.6-5.3,12.7-2,6.6-2.3,9.4-2.2,23,0,14.2.3,16.2,2.8,23.5,3.5,10,5.4,13.2,17,28.3l2,2.5-2.3-1.2c-5.2-2.8-17.8-16.7-20.9-23.1-8.7-17.7-7.9-43.7,2-63.3,11.5-23,27.6-37.4,54.8-49,22-9.4,44.8-12.9,62.1-9.7,15.1,2.8,28.8,14.6,33.4,28.8,1.5,4.5,1.5,5.3.1,8-1.6,3-5.8,5.2-10.3,5.2s-2.2-.4-1.7-2.4c.9-3.8-2.6-6.6-8.1-6.6s-5.1.6-7.9,3.1c-6.1,5.3-5.8,13.2.7,20.6,8.9,10.1,24.5,9.7,35.5-1,8-7.7,10.2-15.2,7.8-26.7-4.2-20.1-17.7-35-38-41.7-7.1-2.4-9.6-2.7-21.1-2.7-8.7.1-15.3.6-19.8,1.7-3.8.9-7,1.7-7.3,1.7s-.4-1.4-.4-3.1v-3.2s-2.3,2.5-2.3,2.5c-1.2,1.3-5.8,4.4-10.2,6.8-4.4,2.3-8.8,5-9.8,5.8-2.1,1.8-2.1,1.4-.2-3,1.8-4.4.7-8.7-3.8-15.5-4.6-6.8-8.7-9.3-15.4-9.3s-5.9.4-8.4,2.9c-3.6,3.7-3.7,7-.3,10.5,2.6,2.6,4.2,3,9.6,2.6,1.6-.1,2.8.2,2.8.6s-8.7,9.5-19.4,20.4c-21.4,21.6-28.7,31.4-33.6,44.8-2.2,6.1-3,7.3-3.6,5.7-.4-1.1-1.4-2.8-2.2-3.7-1.6-2-9-3.3-12.7-2.4l-2.5.6,2,2.8c2.6,3.6,4.7,14.1,5.5,27.7,1.4,25.5,3.4,33.6,11.4,45.4,11.5,16.9,32.1,33.5,56.9,46,4.5,2.3,8.2,4.3,8.2,4.4,0,.2-1.3.2-2.8-.1-9.2-1.3-24.6,5.2-33.8,14.3-9.5,9.3-13.3,19.1-12,30.8,1.9,18,16.3,31.3,30.2,27.8Z"/>
  <path class="cls-1" d="M513.8,292.7c5.5-2.8,6.6-5.9,6.6-18.1s0-11.2,1.8-8.9c4.6,5.8,13.7.5,13.7-7.9s-.8-5-4.8-9.7c-2.6-3.1-5.7-7.2-6.9-9.1-6.1-10.3-11.2-29.3-14.2-52.5-1.5-11.6-1.9-13.6-2-9-.1,3.3-.8,10.5-1.6,16-3.9,26.1-9.4,41.1-19.9,54-6.1,7.3-6.8,10.2-4.1,15.5,2.9,5.6,8.9,6.7,13,2.3l2.5-2.8-1,3.5c-1.7,6-1.2,15.9,1,20.6,3.1,6.3,10.2,9.1,15.9,6.1Z"/>
  <path class="cls-1" d="M413.1,286.6c13.8-4.9,24.6-12.4,38-26.4,14.2-15,34.5-47.4,46.8-75.1,5.2-11.5,6-15.1,3.5-15.1s-3.7,3-7.3,12c-20.8,52.6-54.5,94-85.5,105-2.8,1-4.5,1.9-3.7,1.9s4.5-1,8.2-2.3Z"/>
  <path class="cls-1" d="M905.4,270.6c11.3-5,12.7-24.3,2.8-39.9-4.5-7.2-14-15.6-21.6-19.3-6.3-3-6.8-3.4-3.9-3.4s9.3,2,16.8,4.5c15.3,5.1,20.9,5.6,26,2.4,3.1-1.9,3.8-3.9,1.3-3.9s-6.5-2.7-13.2-5.9c-13.9-6.8-22.3-9.5-35.1-11.6-13.5-2.2-24.4-1.9-36.1.9-14.8,3.6-13.9,2.2,2-3.2,24.8-8.5,42.6-9.1,65-2.2,13.1,4,19.6,4.7,26.6,2.7,9.4-2.8,14.8-10.8,12-17.9-1.4-3.6-6.3-6.1-10.3-5.3-2.5.6-3.5.2-6.1-2.3-1.8-1.7-4.5-3.6-6-4.1-5.3-2-15.1-1.3-24.7,1.8-4.9,1.6-9,2.5-9,2,0-1.2,29.9-16.1,38.8-19.3,8.5-3,22.2-5.6,29.6-5.6,15.1.1,31.1,5.9,36,12.9,11,15.8,5.1,38.1-11.5,43.6-11.9,4-23.2-2.5-21.7-12.4.3-1.9,0-2.7-.7-2.4-1.8.6-5.5,7.8-5.5,10.4,0,5.7,7.1,12.5,15.6,14.8,9.9,2.8,23.1-.2,30.7-7,13.8-12,17.5-37.8,8.2-56.5-7.8-16-27.7-27.3-48-27.5h-7s5-2.4,5-2.4c2.7-1.4,12-5.8,20.5-9.9,15.5-7.5,23-12.4,23-15.2s-3.3-2.4-11.2,2.6c-9.7,6.3-22.8,12.6-35.8,17.3-13.3,4.8-22.4,9.6-31.9,16.8-8.2,6.1-17.5,16-22,23.2-3,4.9-3.8,4.1-1.7-1.9,2-5.9,2.1-14.4.2-18.9-2.3-5.4-4.3-4.5-5.1,2.3-.8,7.1-2.7,13.2-5.9,18.6-5.2,9-26.8,26.6-41.7,34.2-2.7,1.3-9.4,3.3-15.1,4.4-12.6,2.4-20.7,5-32.3,10.5-18.7,8.6-22.5,13.1-8.8,10.4,10-2,37.8-1.8,46.7.4,23.1,5.8,46.4,21.4,51.1,34.2,2.4,6.6,3.9,8.1,8.4,8.9,4,.6,6.1,3.4,6.1,8.2s-2.5,9-4.7,10.3c-2.7,1.6.5,1.3,4.2-.3Z"/>
  <path class="cls-1" d="M115.1,269.8c-3.3-3.6-4.6-9.1-3.2-13.4,1.1-3.4,2.2-4,7.9-4.6,2-.2,2.9-1.4,4.7-6,3-7.9,5.6-11.1,13.9-17.7,17.7-14.1,33.3-19.7,57.5-20.7,10-.5,16.1-.2,23.2,1,11.9,1.9,11.8,1.9,11.8.2s-13.9-9.5-25.6-14c-5.1-2-14.5-4.6-21.1-6-6.7-1.3-14.3-3.6-17.4-5.1-16.8-8.5-38.1-27.1-43.1-37.6-1.5-3.1-3.2-8.7-3.8-12.5s-1.5-7.3-2-7.8c-1.5-1.5-5,5.5-5,9.9s.8,7.1,1.9,10.8c1,3.7,1.6,6.7,1.2,6.7s-2.3-2.6-4.4-5.8c-2-3.2-7-9-11-12.9-11.9-11.5-22.3-17.7-43-25.7-13.4-5.2-23.2-10-33.8-16.7-4.4-2.7-8.5-4.9-9.3-4.9-3.4,0-2.8,2.5,1.4,6.3,3.8,3.3,14.4,8.8,41,21.4l4.5,2.2h-7.5c-26.2.3-48.8,17.1-52.9,39.5-2.3,12.3-.5,24.3,5.1,34.8,3.7,7,8.2,11.2,15.8,14.7,13.4,6.2,31.2,2.3,36.5-8,2-3.7,1.9-5.5-.5-10.5-3-6.1-4.5-6.2-4.5-.4,0,13.6-19.2,16.3-31.1,4.4-10.9-10.8-9.2-33.9,2.9-42.3,13.5-9.2,36.9-10.4,59.6-2.9,11.4,3.8,42.1,19.1,40.8,20.4s-4.1-1-8.8-2.6c-13.8-4.9-26-4-31.8,2.4-1.9,2-3.4,2.6-6.7,2.6-5.7,0-7.2.7-9,4.2-3.6,6.9,1.9,15.7,11.4,18.4,7.2,2.1,14.7,1.4,27-2.5,18.1-5.8,32.7-6.4,51.7-2,9.7,2.3,24.5,7.7,24.5,9s-3-.1-6.8-1.2c-3.8-1.2-11.3-2.3-17.3-2.6-19.1-1-36,2.8-56.6,12.8-6.8,3.2-12.7,5.9-13.2,5.9-2.5,0-1.8,2,1.3,3.9,5.1,3.2,11.4,2.7,24.7-1.9,6.4-2.2,13.8-4.3,16.5-4.6l4.9-.6-7.3,3.7c-12.5,6.3-22.3,17.7-26.2,30.4-4.7,14.9-.3,27.1,10.6,29.7l2.9.7-2.3-2.5Z"/>
  <path class="cls-1" d="M858.4,256.5c-2.4-18.4-11.3-29.6-27.5-34.6-6.5-2-24.1-3.9-22.8-2.4.5.5,3.6,2,7,3.5,13.3,5.6,22.9,13.3,35.1,28,3.9,4.7,7.4,9,7.9,9.5s.7-.9.3-4Z"/>
  <path class="cls-1" d="M166.4,250.8c11.5-14.6,21.8-22.3,41-30.4,3.8-1.6-7.8-1.6-15.6,0-14.5,3.1-24.7,10.2-29.8,21.1-1.9,4-4.8,18.1-3.9,19s3.9-4.2,8.3-9.7Z"/>
  <path class="cls-1" d="M595.9,257.8c4.9-1.4,8.5-4.2,10-7.8.7-1.7,1.1-3.2.9-3.5-.2-.2-3.1.6-6.4,1.7-7.3,2.4-12.1,2.1-25.5-2.1-5.2-1.7-11.5-3.3-14-3.7l-4.5-.7,3.5,3.7c4.8,5.2,13.5,10.2,20.5,12.1,6.6,1.7,10.4,1.8,15.5.3Z"/>
  <path class="cls-1" d="M436.1,257.5c7.5-2,13-5.1,18.9-10.6l5.4-5-4.1.5c-2.2.3-8.4,1.9-13.7,3.6-15.1,4.6-21.2,4.7-31.1.5-2.9-1.3-1.1,3.4,2.9,7.2,5.3,5.1,12.5,6.4,21.7,3.8Z"/>
  <path class="cls-1" d="M627.5,219.5c7.4-1.6,11.2-3.4,18.1-8.7,10.8-8.2,19.6-26.3,16.2-33.2-2.1-4.3-6.1-6.8-11.7-7.4-6-.5-11.1,1-14.3,4.4-5.7,6.1-1.1,17.4,7.2,17.4,2.4,0,3.9-.5,4.3-1.5.8-2.3,2.5-1.8,3.2,1,.9,3.5-2.9,10.7-8.1,15.3-6.6,5.8-13.8,9.2-23.2,11.1-6.5,1.3-8,1.9-6.2,2.4,3.5,1,7.5.7,14.5-.8Z"/>
  <path class="cls-1" d="M404.3,220.2c1.5-.6,0-1.2-5.6-2.1-4.1-.6-10.2-2.5-13.6-4.1-11.3-5.3-20.2-16.1-18.6-22.5.7-2.7,3.4-3.5,3.4-1s1.1,1.5,3.9,1.5c5.3,0,9.1-4.3,9.1-10.4s-5.2-11.6-14.5-11.6-9.5,1.9-12.4,5.6c-7.8,9.9,8.7,35.3,27.6,42.4,5.9,2.2,17.7,3.4,20.7,2.2Z"/>
  <path class="cls-1" d="M461.5,178.9c10.6-1.3,22.7-7.3,30.1-15.1,7.1-7.5,13.5-21.2,14.9-32.4,1.8-14.1-5-32-16.4-43.3-10.3-10.3-21.8-15.1-36.2-15.1-25.2,0-46.2,17.3-51.5,42.5-1.8,8.8-1.8,12.2,0,20.9,5.9,27.9,30.8,45.8,59.1,42.5ZM441.6,167c-12.9-4-24.6-15.9-28.3-28.8-2.6-8.8-1.6-21,2.3-29.5,12.4-26.4,45.5-33.5,66.2-14.2,10.6,9.9,14.5,19.6,13.9,34.4-.3,8.5-.8,10.6-3.6,16.4-9.3,18.8-30.5,27.9-50.5,21.7Z"/>
  <path class="cls-1" d="M463,143.7c13.6-7.2,13.6-27.2,0-34.4-15.5-8.2-33.8,7.1-27.7,23.2,2.4,6.1,5.2,9.4,10,11.6,5.7,2.6,12.3,2.4,17.7-.4ZM444.1,134.5c-3.6-3-4.7-6.6-3.2-11.1,1.5-4.4,5.4-7.4,9.7-7.4,6.8,0,11.3,4.2,11.3,10.5,0,9.1-10.8,13.9-17.8,8Z"/>
  <path class="cls-1" d="M577.9,177.2c12.6-4.2,21.6-10.9,28.3-20.9,14.7-22.1,12.2-49.9-6.2-68.2-19.7-19.6-52.8-20.3-72.5-1.4-17.7,16.9-22.1,41.1-11.6,63.2,5.3,11,12.7,18.4,24.5,24.2,8.5,4.2,8.8,4.3,20.3,4.6,9.3.2,12.8-.1,17.2-1.5ZM549.7,167c-24.2-7.5-36.2-34.9-25.5-58.3,3.5-7.6,12.6-17,20-20.7,26-12.6,56.2,3.4,60.7,32,3.2,21-11.5,43.1-31.7,47.9-6.7,1.6-16.7,1.2-23.5-.9Z"/>
  <path class="cls-1" d="M572.4,143.7c9.1-5.2,13-16.9,8.3-25.6-1.3-2.5-4.1-5.8-6.2-7.5-3.4-2.8-4.4-3.1-11-3.1s-7.8.4-11.4,2.8c-5.4,3.5-8.6,9.6-8.6,16.3-.1,14.4,16.4,24.2,28.9,17.1ZM560.6,135.9c-3.7-1.9-5.7-5.2-5.7-9.4,0-9.1,10.8-13.9,17.8-8,7.3,6.1,2.9,18.5-6.6,18.5s-4.3-.5-5.5-1.1Z"/>
  <path class="cls-1" d="M858.9,168.3c14.6-11,24.8-26,29.6-43.8,2.2-8,1.6-7.6-1.9,1.2-6.4,15.6-14.4,26.5-27,36.4-7.5,6-9.5,8.9-6,8.9s3.4-1.2,5.3-2.7Z"/>
  <path class="cls-1" d="M164.9,169.5c0-.8-1.7-2.7-3.7-4.2-13.8-10.4-25.3-25-30.4-38.5-2.9-7.9-3.7-6-.9,2.3,4.6,13.8,14,27.5,24.8,36.5,6.5,5.3,10.2,6.8,10.2,3.9Z"/>
  <path class="cls-1" d="M839,158.3c11.2-11.5,16-19.1,19.3-30.2,2.9-10,1.3-24.9-3.4-31.1l-2-2.5v3.1c0,4.5-3.3,16.7-7.4,27.3-2,5.1-4.8,14.1-6.2,19.9-1.4,5.9-3.7,12.8-5,15.5-1.4,2.6-2.3,4.7-2.1,4.7s3.2-3,6.8-6.7Z"/>
  <path class="cls-1" d="M182.4,159.9c-1.4-3-3.6-10.2-5.1-16-1.4-5.7-4.4-15.1-6.6-20.8-4.9-12.5-6.8-19.3-6.8-24.6s-.2-3.8-1.5-2.4c-2.9,2.9-5.5,12.5-5.5,20.4,0,13.9,6,26.1,20.3,41l7.7,8-2.5-5.6Z"/>
  <path class="cls-1" d="M913.9,106.6c6.9-2,10.8-4.3,12.5-7.6,2.7-5.3,1.6-7-4.5-7s-5.4-2.2-4.6-6.5c1.3-6.9,9.5-13.5,16.6-13.5s6.7,1.5,9.1,5.3l1.9,3.2-.6-3.5c-.9-4.7-3.7-10-6.6-12.6-9.8-9-26.3-8.4-32,1.2-1.1,1.8-2.2,3.4-2.5,3.4s-.2-2.3.2-5.1c.9-6.6-.9-12.9-4.8-16.9-5.8-5.9-11.3-7.5-22-6.5l-7.1.7,4.5,2.3c8.4,4.3,16.5,15.9,14.6,20.9-1.1,2.7-5.2,3-8.5.6-9-6.7-16.9,8.5-10.2,19.6,7.1,11.7,17.9,23.8,19.7,22s-1.8-13.2-4.9-19.3c-2.7-5.2-3-6.6-2.1-8.6,1.6-3.4,6-4.3,9.2-1.9,4.4,3.3,4.8,9.1,1.5,25.2-.3,1.4,1.1-.2,3.1-3.7,6.9-11.8,11.9-14.9,16.5-10.3s2.4,5.1-8.8,11c-9.2,4.8-11.8,6.7-10.8,7.7,1.3,1.4,15.9,1.3,20.6,0Z"/>
  <path class="cls-1" d="M122.9,107c1.8-1.2,1.7-1.3-11-8.1-8.9-4.7-10.3-6.6-8-10.8,1.3-2.5,5.6-2.8,8.7-.6,1.2.9,4.1,4.6,6.3,8.3l4.1,6.7-.8-5.5c-.4-3-.8-8.1-.8-11.3,0-5.2.3-6.2,2.8-8.3,3.5-3,4.9-3,8.4,0l2.7,2.4-3.7,7.8c-3.6,7.9-6,19.4-4,19.4s10.7-10.2,15.8-17.9c4.3-6.4,5-8,5.3-13.7.4-6,.3-6.5-2.6-9.4s-7.1-3.9-9.7-1c-2.1,2.3-4.4,2.5-6.9.7-1.4-1-1.6-2.1-1.1-5,1.1-5.9,5.7-11.8,12.4-15.8l6-3.6-4.6-.7c-10.4-1.4-16.5-.1-22,4.7-5.5,4.8-7.5,10.3-6.7,18l.6,6.2-2.3-3.4c-4.1-5.8-7.2-7.5-14.8-7.9-5.5-.3-7.6,0-11.2,1.8-5.7,2.9-8.6,5.6-11,10.2-2.1,4.1-2.8,11.1-.7,7.3,2.9-5.3,8.6-6.9,15.1-4.1,7.3,3,13.3,14.2,9.2,17.2-.9.7-3.5,1.6-5.7,1.9-3.8.7-4,.8-3.4,3.8,1,5.2,4.6,7.8,14.1,10.3,5.9,1.6,17.4,1.8,19.5.4Z"/>
  <path class="cls-1" d="M510.1,84.8c.4-6.6,1.6-12.8,4.1-21.3,2-6.6,3.9-14,4.2-16.5,1.2-8.7-4.9-30.1-9.1-31.7-2.6-1-5,2.7-8,12-3.8,12.1-3.6,20,1.1,35.2,2.6,8.4,3.9,14.8,4.4,21.4.8,12.7,2.7,13.1,3.3.9Z"/>
  <path class="cls-1" d="M629.4,87.8c1.3-5.5.7-12.1-1.5-18.1-4.4-11.8-18.7-22.2-31.9-23.4-5.6-.5-16.1,1.2-16.1,2.6s3.1,1.1,6.8,1.7c18,2.9,33.5,16.7,39.2,34.9,1.7,5.6,2.7,6.2,3.5,2.3Z"/>
  <path class="cls-1" d="M390.8,86.8c3.1-10.6,10.9-22.2,18.6-27.7,6.1-4.4,15.5-8.1,22.9-9l6.1-.8-3.7-1.6c-10.8-4.9-31.9,1.8-40.1,12.6-5.6,7.4-7.1,11.8-7.2,20.4,0,9.7,1.5,12.5,3.4,6.1Z"/>
  <path class="cls-1" d="M525.9,77.8c3.4-7.5,15.6-19.3,24.5-23.9,7.5-3.9,14.4-6.4,21.6-7.8l4.4-.9h-6c-17.1-.4-41.1,12.3-47.7,25.1-2,4-2.2,11.7-.3,12.4.6.2,2.1-2.1,3.5-4.9Z"/>
  <path class="cls-1" d="M496.3,80.7c1.4-5.9-4.1-15.8-12.2-21.9-10.2-7.7-26.7-13.9-36.7-13.7h-5c0,.1,7,1.9,7,1.9,17.2,4.6,34,16.7,41.4,29.9,1.9,3.4,3.8,6.1,4.2,6.1s.9-1,1.3-2.3Z"/>
  <path class="cls-1" d="M1009.5,2.9c.3-.6.2-1.5-.3-2S813.2,0,509.3,0c-274.4,0-499.5,0-500.2,0s-1.2.9-1.2,2c0,2,.7,2,500.4,2,359.3,0,500.7-.3,501.2-1.1Z"/>
</svg>